{"title":"Elysium &amp; BluRay Xtras [2013] (No Cinavia) 1080p","uid":12138421,"size":5903143969,"categoryP":"video","categoryS":"movies","magnet":"?xt=urn:btih:c823d73292ab9a8f6f4a4386eca285bd4c1becad&amp;dn=Elysium+%26amp%3B+BluRay+Xtras+%5B2013%5D+%28No+Cinavia%29+1080p&amp;tr=udp%3A%2F%2Ftracker.openbittorrent.com%3A80&amp;tr=udp%3A%2F%2Fopen.demonii.com%3A1337&amp;tr=udp%3A%2F%2Ftracker.coppersurfer.tk%3A6969&amp;tr=udp%3A%2F%2Fexodus.desync.com%3A6969","seeders":1,"leechers":0,"uploader":"AlienMethod","files":19,"time":1437273659,"description":"x264/mp4\nCinavia Removed (CinExHD)\n6-Channel AC3@640kbps (audio 1)\n2-Channel AAC@128kbps (audio 2)\nEnglish Subs (HC for Non-English/.srt for English) Incl.\nBluRay Xtras (making of, etc.) Incl.\n\n\n&quot;In the year 2154, the very wealthy live on a man-made space station\nwhile the rest of the population resides on a ruined Earth. A man takes on a \nmission that could bring equality to the polarized worlds.&quot;\n\n\n\nGeneral\nComplete name : F:TorrentsElysium &amp; BluRay Xtras [2013] (NoCinavia) 1080p\nElysium [2013] (NoCinavia) 1080p.mp4\nFormat : MPEG-4\nFormat profile : Base Media\nCodec ID : isom\nFile size : 3.91 GiB\nDuration : 1h 49mn\nOverall bit rate mode : Variable\nOverall bit rate : 5 107 Kbps\nEncoded date : UTC 2015-07-18 14:42:33\nTagged date : UTC 2015-07-18 14:42:33\nWriting application : My MP4Box GUI 0.6.0.6 \n\nVideo\nID : 1\nFormat : AVC\nFormat/Info : Advanced Video Codec\nFormat profile : &lt;a class=&quot;__cf_email__&quot; href=&quot;/cdn-cgi/l/email-protection&quot; data-cfemail=&quot;c189a8a6a9818df5eff1&quot;&gt;[email&amp;#160;protected]&lt;/a&gt;&lt;script data-cfhash='f9e31' type=&quot;text/javascript&quot;&gt;\n/* &lt;![CDATA[ */!function(){try{var t=&quot;currentScript&quot;in document?document.currentScript:function(){for(var t=document.getElementsByTagName(&quot;script&quot;),e=t.length;e--;)if(t[e].getAttribute(&quot;data-cfhash&quot;))return t[e]}();if(t&amp;&amp;t.previousSibling){var e,r,n,i,c=t.previousSibling,a=c.getAttribute(&quot;data-cfemail&quot;);if(a){for(e=&quot;&quot;,r=parseInt(a.substr(0,2),16),n=2;a.length-n;n+=2)i=parseInt(a.substr(n,2),16)^r,e+=String.fromCharCode(i);e=document.createTextNode(e),c.parentNode.replaceChild(e,c)}t.parentNode.removeChild(t);}}catch(u){}}()/* ]]&gt; */&lt;/script&gt;\nFormat settings, CABAC : Yes\nFormat settings, ReFrames : 4 frames\nCodec ID : avc1\nCodec ID/Info : Advanced Video Coding\nDuration : 1h 49mn\nBit rate : 4 337 Kbps\nMaximum bit rate : 46.2 Mbps\nWidth : 1 920 pixels\nHeight : 800 pixels\nDisplay aspect ratio : 2.40:1\nFrame rate mode : Constant\nFrame rate : 23.976 fps\nColor space : YUV\nChroma subsampling : 4:2:0\nBit depth : 8 bits\nScan type : Progressive\nBits/(Pixel*Frame) : 0.118\nStream size : 3.32 GiB (85%)\nTitle : Elysium (CinEx)VideoEncode.h264\nWriting library : x264 core 142 r2479 dd79a61\nEncoded date : UTC 2015-07-18 14:42:33\nTagged date : UTC 2015-07-18 14:43:05\n\nAudio #1\nID : 2\nFormat : AC-3\nFormat/Info : Audio Coding 3\nMode extension : CM (complete main)\nFormat settings, Endianness : Big\nCodec ID : ac-3\nDuration : 1h 49mn\nBit rate mode : Constant\nBit rate : 640 Kbps\nChannel(s) : 6 channels\nChannel positions : Front: L C R, Side: L R, LFE\nSampling rate : 48.0 KHz\nBit depth : 16 bits\nCompression mode : Lossy\nStream size : 502 MiB (13%)\nTitle : Elysium (CinEx) FULL HD STREAM_track2_und.ac3\nEncoded date : UTC 2015-07-18 14:42:54\nTagged date : UTC 2015-07-18 14:43:05\n\nAudio #2\nID : 3\nFormat : AAC\nFormat/Info : Advanced Audio Codec\nFormat profile : LC\nCodec ID : 40\nDuration : 1h 49mn\nBit rate mode : Variable\nBit rate : 125 Kbps\nMaximum bit rate : 162 Kbps\nChannel(s) : 2 channels\nChannel positions : Front: L R\nSampling rate : 48.0 KHz\nCompression mode : Lossy\nStream size : 98.1 MiB (2%)\nTitle : Elysium (CinEx) FULL HD STREAM_track2_und_Output.m4a\nEncoded date : UTC 2015-07-18 14:43:04\nTagged date : UTC 2015-07-18 14:43:05","torrent":{"xt":"urn:btih:c823d73292ab9a8f6f4a4386eca285bd4c1becad","amp;dn":"Elysium+%26amp%3B+BluRay+Xtras+%5B2013%5D+%28No+Cinavia%29+1080p","amp;tr":["udp%3A%2F%2Ftracker.openbittorrent.com%3A80","udp%3A%2F%2Fopen.demonii.com%3A1337","udp%3A%2F%2Ftracker.coppersurfer.tk%3A6969","udp%3A%2F%2Fexodus.desync.com%3A6969"],"infoHash":"c823d73292ab9a8f6f4a4386eca285bd4c1becad","infoHashBuffer":{"type":"Buffer","data":[200,35,215,50,146,171,154,143,111,74,67,134,236,162,133,189,76,27,236,173]},"announce":[],"urlList":[]}}